<?xml version="1.0" encoding="utf-8"?>
<!-- Generator: Adobe Illustrator 25.0.0, SVG Export Plug-In . SVG Version: 6.00 Build 0)  -->
<svg version="1.1" id="Layer_1" xmlns="http://www.w3.org/2000/svg" xmlns:xlink="http://www.w3.org/1999/xlink" x="0px" y="0px"
	 viewBox="0 0 940.7 885.9" style="enable-background:new 0 0 940.7 885.9;" xml:space="preserve">
<style type="text/css">
	.st0{fill:#678FBF;}
	.st1{fill:none;stroke:#4C5660;stroke-width:4;stroke-miterlimit:10;}
	.st2{fill:none;stroke:#4C5660;stroke-width:4;stroke-linecap:round;stroke-linejoin:round;}
	.st3{fill:#FFFFFF;}
	.st4{fill:#516FA5;}
	.st5{opacity:0.1;fill:none;stroke:#EF4230;stroke-width:5;stroke-miterlimit:10;enable-background:new    ;}
	.st6{opacity:0.1;fill:none;stroke:#26A6E0;stroke-width:5;stroke-miterlimit:10;enable-background:new    ;}
	.st7{opacity:0.15;fill:#678FBF;enable-background:new    ;}
	.st8{fill:none;stroke:#4C5660;stroke-width:4;stroke-linecap:round;stroke-miterlimit:10;}
	.st9{opacity:0.2;fill:#678FBF;enable-background:new    ;}
	.st10{clip-path:url(#SVGID_2_);}
	.st11{fill:#1B1464;stroke:#1B1464;stroke-width:0.7;stroke-miterlimit:10;}
	.st12{fill:none;stroke:#FFFFFF;stroke-width:10;stroke-linecap:round;stroke-miterlimit:10;}
	.st13{fill:none;stroke:#FFFFFF;stroke-width:13;stroke-linecap:round;stroke-miterlimit:10;}
	.st14{fill:none;stroke:#FFFFFF;stroke-width:4;stroke-linecap:round;stroke-miterlimit:10;}
	.st15{fill:#1B1464;stroke:#1B1464;stroke-width:0.3394;stroke-miterlimit:10;}
	.st16{fill:#1B1464;}
	.st17{fill:#1B1464;stroke:#1B1464;stroke-width:0.2861;stroke-miterlimit:10;}
	.st18{fill:#1B1464;stroke:#1B1464;stroke-width:0.2667;stroke-miterlimit:10;}
	.st19{fill:#1B1464;stroke:#1B1464;stroke-width:0.3588;stroke-miterlimit:10;}
	.st20{fill:none;stroke:#FFFFFF;stroke-width:1.9831;stroke-linecap:round;stroke-miterlimit:10;}
	.st21{clip-path:url(#SVGID_4_);}
	.st22{clip-path:url(#SVGID_6_);}
	.st23{fill:#1B1464;stroke:#1B1464;stroke-width:0.4251;stroke-miterlimit:10;}
	.st24{fill:none;stroke:#FFFFFF;stroke-width:7.8943;stroke-miterlimit:10;}
	.st25{fill:none;stroke:#FFFFFF;stroke-width:7.8943;stroke-linecap:round;stroke-miterlimit:10;}
	.st26{clip-path:url(#SVGID_8_);}
	.st27{fill:#1B1464;stroke:#1B1464;stroke-width:0.3042;stroke-miterlimit:10;}
	.st28{fill:none;stroke:#FFFFFF;stroke-width:2.6073;stroke-linecap:round;stroke-miterlimit:10;}
	.st29{fill:#1B1464;stroke:#1B1464;stroke-width:0.343;stroke-miterlimit:10;}
	.st30{fill:none;stroke:#FFFFFF;stroke-width:4.4101;stroke-linecap:round;stroke-miterlimit:10;}
	.st31{fill:#FFFFFF;stroke:#FFFFFF;stroke-width:0.7203;stroke-linecap:round;stroke-linejoin:round;}
	.st32{fill:none;stroke:#FFFFFF;stroke-width:2.4501;stroke-linecap:round;stroke-linejoin:round;}
</style>
<g id="Group_10">
	<g id="Group_6">
		<path id="Path_33" class="st0" d="M782.7,727.8l146.6-67.6c6.3-2.9,11.5-12,11.5-20.3V320.1c-0.7-15.4-14.3-24.1-23-19.3
			l-135.1,77.3c-6.3,2.9-11.5,12-11.5,20.3L761,709.7C761,718.5,775.2,731.1,782.7,727.8z"/>
		<line id="Line_2" class="st1" x1="892.8" y1="308.8" x2="890.1" y2="323.8"/>
		<path id="Path_34" class="st2" d="M889.6,322.3l-0.6,3.5c-0.4,2.5,0.6,4.3,2.4,4.1l0,0c1.7-0.2,3.5-2.4,3.9-4.9l0.6-3.5L899,304"
			/>
		<path id="Path_35" class="st3" d="M772.5,717.6L919.1,650c6.3-2.9,11.5-12,11.5-20.3V309.9c0-8.3-5.1-12.6-11.5-9.7l-146.6,67.6
			c-6.3,2.9-11.5,12-11.5,20.3v319.8C761,716.2,766.1,720.5,772.5,717.6z"/>
		<path id="Path_36" class="st4" d="M919,650L919,650c6.3-2.9,11.5-12,11.5-20.3V309.9c0-8.3-5.1-12.6-11.5-9.7l0,0V650z"/>
		<g id="Group_4">
			<line id="Line_3" class="st5" x1="919" y1="324" x2="761" y2="396.9"/>
			<line id="Line_4" class="st6" x1="919" y1="351.3" x2="761" y2="424.2"/>
			<line id="Line_5" class="st6" x1="919" y1="378.7" x2="761" y2="451.6"/>
			<line id="Line_6" class="st6" x1="919" y1="406" x2="761" y2="479"/>
			<line id="Line_7" class="st6" x1="919" y1="433.4" x2="761" y2="506.3"/>
			<line id="Line_8" class="st6" x1="919" y1="460.8" x2="761" y2="533.7"/>
			<line id="Line_9" class="st6" x1="919" y1="488.1" x2="761" y2="561"/>
			<line id="Line_10" class="st6" x1="919" y1="515.5" x2="761" y2="588.4"/>
			<line id="Line_11" class="st6" x1="919" y1="542.8" x2="761" y2="615.8"/>
			<line id="Line_12" class="st6" x1="919" y1="570.2" x2="761" y2="643.1"/>
			<line id="Line_13" class="st6" x1="919" y1="597.6" x2="761" y2="670.5"/>
			<line id="Line_14" class="st6" x1="919" y1="624.9" x2="761" y2="697.8"/>
		</g>
		<g id="Group_5">
			<path id="Path_38" class="st1" d="M901.3,322.9l4.9-28c0.8-4.4-1.1-7.7-4.2-7.3l0,0c-3.1,0.4-6.3,4.4-7.1,8.8l-2.2,12.3"/>
			<path id="Path_39" class="st2" d="M904.3,305.9l-4.6,26.3c-1.1,6.2-5.6,11.8-10,12.4l0,0c-4.4,0.6-7.1-4-6-10.2l2.8-15.8"/>
		</g>
	</g>
	<g id="Group_9">
		<path id="Path_40" class="st0" d="M158.1,583.9L11.5,516.3C5.2,513.4,0,504.3,0,496V176.2c0-10.9,13.2-24.9,23-19.3l135.1,77.3
			c6.3,2.9,11.5,12,11.5,20.3l5.8,314.9C175.4,577.6,165.6,587.2,158.1,583.9z"/>
		<line id="Line_15" class="st2" x1="48" y1="164.9" x2="50.7" y2="179.9"/>
		<path id="Path_41" class="st2" d="M51.2,178.4l0.6,3.5c0.4,2.5-0.6,4.3-2.4,4.1l0,0c-1.7-0.2-3.5-2.4-3.9-4.9l-0.6-3.5l-3.1-17.5"
			/>
		<path id="Path_42" class="st3" d="M168.3,573.7L21.7,506.1c-6.3-2.9-11.5-12-11.5-20.3V166c0-8.3,5.1-12.6,11.5-9.7L168.3,224
			c6.3,2.9,11.5,12,11.5,20.3V564C179.8,572.3,174.7,576.6,168.3,573.7z"/>
		<path id="Path_43" class="st4" d="M21.8,506.1L21.8,506.1c-6.3-2.9-11.5-12-11.5-20.3V166c0-8.3,5.1-12.6,11.5-9.7l0,0V506.1z"/>
		<g id="Group_7">
			<line id="Line_16" class="st5" x1="21.8" y1="180.1" x2="179.8" y2="253"/>
			<line id="Line_17" class="st6" x1="21.8" y1="207.4" x2="179.8" y2="280.4"/>
			<line id="Line_18" class="st6" x1="21.8" y1="234.8" x2="179.8" y2="307.7"/>
			<line id="Line_19" class="st6" x1="21.8" y1="262.2" x2="179.8" y2="335.1"/>
			<line id="Line_20" class="st6" x1="21.8" y1="289.5" x2="179.8" y2="362.4"/>
			<line id="Line_21" class="st6" x1="21.8" y1="316.9" x2="179.8" y2="389.8"/>
			<line id="Line_22" class="st6" x1="21.8" y1="344.2" x2="179.8" y2="417.2"/>
			<line id="Line_23" class="st6" x1="21.8" y1="371.6" x2="179.8" y2="444.5"/>
			<line id="Line_24" class="st6" x1="21.8" y1="399" x2="179.8" y2="471.9"/>
			<line id="Line_25" class="st6" x1="21.8" y1="426.3" x2="179.8" y2="499.2"/>
			<line id="Line_26" class="st6" x1="21.8" y1="453.7" x2="179.8" y2="526.6"/>
			<line id="Line_27" class="st6" x1="21.8" y1="481" x2="179.8" y2="554"/>
		</g>
		<g id="Group_8">
			<path id="Path_45" class="st2" d="M39.5,179l-4.9-28c-0.8-4.4,1.1-7.7,4.2-7.3l0,0c3.1,0.4,6.3,4.4,7.1,8.8l2.2,12.3"/>
			<path id="Path_46" class="st2" d="M36.5,162.1l4.6,26.3c1.1,6.2,5.6,11.8,10,12.4l0,0c4.4,0.6,7.1-4,6-10.2l-2.8-15.8"/>
		</g>
	</g>
</g>
<path id="Path_47" class="st0" d="M606.8,485.6l205.1-37c8.9-1.6,16.1-10.9,16.1-20.8V46.3c0-12.9-13.7-27.1-25.9-24.1L606.8,68.4
	c-8.9,1.6-16.1,10.9-16.1,20.8L582,462.5C582,472.4,596.3,487.3,606.8,485.6z"/>
<path id="Path_48" class="st7" d="M609.6,497.1l210.2-38c9.1-1.6,16.5-11.2,16.5-21.3V47c0-13.3-14-27.8-26.5-24.7L609.6,69.6
	c-9.1,1.6-16.5,11.2-16.5,21.3l-9,382.6C584.2,483.5,598.9,498.8,609.6,497.1z"/>
<line id="Line_28" class="st1" x1="766.5" y1="24.5" x2="762.8" y2="41.6"/>
<path id="Path_49" class="st8" d="M762,39.6l-0.9,4c-0.6,2.8,0.9,5.3,3.3,5.5l0,0c2.4,0.2,4.9-1.9,5.5-4.7l0.9-4l4.3-20"/>
<path id="Path_50" class="st3" d="M598.1,476.3l205.1-37c8.9-1.6,16.1-10.9,16.1-20.8V37c0-9.9-7.2-16.6-16.1-15L598.1,59
	c-8.9,1.6-16.1,10.9-16.1,20.8v381.5C582,471.2,589.2,477.9,598.1,476.3z"/>
<path id="Path_51" class="st4" d="M803.2,439.3L803.2,439.3c8.9-1.6,16.1-10.9,16.1-20.8V37c0-9.9-7.2-16.6-16.1-15l0,0V439.3z"/>
<g id="Group_11">
	<line id="Line_29" class="st5" x1="803.2" y1="50.4" x2="582" y2="90.3"/>
	<line id="Line_30" class="st6" x1="803.2" y1="83" x2="582" y2="123"/>
	<line id="Line_31" class="st6" x1="803.2" y1="115.7" x2="582" y2="155.6"/>
	<line id="Line_32" class="st6" x1="803.2" y1="148.3" x2="582" y2="188.3"/>
	<line id="Line_33" class="st6" x1="803.2" y1="180.9" x2="582" y2="220.9"/>
	<line id="Line_34" class="st6" x1="803.2" y1="213.6" x2="582" y2="253.5"/>
	<line id="Line_35" class="st6" x1="803.2" y1="246.2" x2="582" y2="286.2"/>
	<line id="Line_36" class="st6" x1="803.2" y1="278.9" x2="582" y2="318.8"/>
	<line id="Line_37" class="st6" x1="803.2" y1="311.5" x2="582" y2="351.4"/>
	<line id="Line_38" class="st6" x1="803.2" y1="344.1" x2="582" y2="384.1"/>
	<line id="Line_39" class="st6" x1="803.2" y1="376.8" x2="582" y2="416.7"/>
	<line id="Line_40" class="st6" x1="803.2" y1="409.4" x2="582" y2="449.3"/>
</g>
<g id="Group_12">
	<path id="Path_53" class="st1" d="M778.4,43.9l6.9-31.9c1.1-5.1-1.6-9.5-5.9-9.9l0,0c-4.4-0.4-8.8,3.3-9.9,8.4l-3,14.1"/>
	<path id="Path_54" class="st8" d="M782.6,24.5l-6.5,30c-1.5,7.1-7.8,12.4-13.9,11.8l0,0c-6.2-0.6-9.9-6.9-8.4-14l3.9-18"/>
</g>
<path id="Path_55" class="st0" d="M323.7,885.8l-205.1-37c-8.9-1.6-16.1-10.9-16.1-20.8V446.6c0-13,13.7-27.1,25.9-24.1l195.3,46.2
	c8.9,1.6,16.1,10.9,16.1,20.8l8.7,373.3C348.5,872.6,334.2,887.5,323.7,885.8z"/>
<path id="Path_56" class="st7" d="M321.2,885.4l-209.8-37.9c-9.1-1.6-16.4-11.1-16.4-21.2V436.1c0-13.2,14-27.8,26.5-24.6
	l199.8,47.2c9.1,1.6,16.4,11.1,16.4,21.2l8.9,381.9C346.6,871.9,331.9,887.2,321.2,885.4z"/>
<line id="Line_41" class="st1" x1="164" y1="424.7" x2="167.7" y2="441.8"/>
<path id="Path_57" class="st2" d="M168.5,439.9l0.9,4c0.6,2.8-0.9,5.3-3.3,5.5l0,0c-2.4,0.2-4.9-1.9-5.5-4.7l-0.9-4l-4.3-20"/>
<path id="Path_58" class="st3" d="M332.4,876.5l-205.1-37c-8.9-1.6-16.1-10.9-16.1-20.8V437.2c0-9.9,7.2-16.6,16.1-15l205.1,37
	c8.9,1.6,16.1,10.9,16.1,20.8v381.5C348.5,871.4,341.3,878.1,332.4,876.5z"/>
<path id="Path_59" class="st4" d="M127.3,839.5L127.3,839.5c-8.9-1.6-16.1-10.9-16.1-20.8V437.2c0-9.9,7.2-16.6,16.1-15l0,0V839.5z"
	/>
<g id="Group_14">
	<line id="Line_42" class="st5" x1="127.3" y1="450.6" x2="348.5" y2="490.6"/>
	<line id="Line_43" class="st6" x1="127.3" y1="483.3" x2="348.5" y2="523.2"/>
	<line id="Line_44" class="st6" x1="127.3" y1="515.9" x2="348.5" y2="555.8"/>
	<line id="Line_45" class="st6" x1="127.3" y1="548.5" x2="348.5" y2="588.5"/>
	<line id="Line_46" class="st6" x1="127.3" y1="581.2" x2="348.5" y2="621.1"/>
	<line id="Line_47" class="st6" x1="127.3" y1="613.8" x2="348.5" y2="653.7"/>
	<line id="Line_48" class="st6" x1="127.3" y1="646.4" x2="348.5" y2="686.4"/>
	<line id="Line_49" class="st6" x1="127.3" y1="679.1" x2="348.5" y2="719"/>
	<line id="Line_50" class="st6" x1="127.3" y1="711.7" x2="348.5" y2="751.6"/>
	<line id="Line_51" class="st6" x1="127.3" y1="744.3" x2="348.5" y2="784.3"/>
	<line id="Line_52" class="st6" x1="127.3" y1="777" x2="348.5" y2="816.9"/>
	<line id="Line_53" class="st6" x1="127.3" y1="809.6" x2="348.5" y2="849.6"/>
</g>
<g id="Group_15">
	<path id="Path_61" class="st2" d="M152,444.1l-6.9-31.9c-1.1-5.1,1.6-9.5,5.9-9.9l0,0c4.4-0.4,8.8,3.3,9.9,8.4l3,14.1"/>
	<path id="Path_62" class="st2" d="M147.9,424.8l6.5,30c1.5,7.1,7.8,12.4,13.9,11.8l0,0c6.2-0.6,9.9-6.9,8.4-14l-3.9-18"/>
</g>
<g id="Group_20">
	<path id="Rectangle_3" class="st9" d="M308.4,90.3h324c8.3,0,15,6.7,15,15v517.1c0,8.3-6.7,15-15,15h-324c-8.3,0-15-6.7-15-15
		V105.3C293.4,97,300.1,90.3,308.4,90.3z"/>
	<path id="Rectangle_4" class="st0" d="M323.2,110.3h294.5c8.3,0,15,6.7,15,15v486c0,8.3-6.7,15-15,15H323.2c-8.3,0-15-6.7-15-15
		v-486C308.2,117,314.9,110.3,323.2,110.3z"/>
	<line id="Line_54" class="st1" x1="379.9" y1="93.3" x2="385" y2="113.6"/>
	<path id="Path_63" class="st2" d="M386,111l1.2,4.8c0.8,3.4-1.2,6.8-4.6,7.6l0,0l0,0c-3.4,0.8-6.8-1.2-7.6-4.6l-1.2-4.8l-5.9-23.7"
		/>
	<path id="Rectangle_5" class="st3" d="M322.3,98.5h296.2c8.3,0,15,6.7,15,15v486c0,8.3-6.7,15-15,15H322.3c-8.3,0-15-6.7-15-15
		v-486C307.3,105.2,314,98.5,322.3,98.5z"/>
	<path id="Rectangle_6" class="st4" d="M322.3,98.5h7.1l0,0v516l0,0h-7.1c-8.3,0-15-6.7-15-15v-486C307.3,105.2,314,98.5,322.3,98.5
		z"/>
	<g id="Group_18">
		<line id="Line_55" class="st5" x1="329.4" y1="133.5" x2="633.5" y2="133.5"/>
		<line id="Line_56" class="st6" x1="329.4" y1="173.9" x2="633.5" y2="173.9"/>
		<line id="Line_57" class="st6" x1="329.4" y1="214.3" x2="633.5" y2="214.3"/>
		<line id="Line_58" class="st6" x1="329.4" y1="254.6" x2="633.5" y2="254.6"/>
		<line id="Line_59" class="st6" x1="329.4" y1="295" x2="633.5" y2="295"/>
		<line id="Line_60" class="st6" x1="329.4" y1="335.4" x2="633.5" y2="335.4"/>
		<line id="Line_61" class="st6" x1="329.4" y1="375.7" x2="633.5" y2="375.7"/>
		<line id="Line_62" class="st6" x1="329.4" y1="416.1" x2="633.5" y2="416.1"/>
		<line id="Line_63" class="st6" x1="329.4" y1="456.5" x2="633.5" y2="456.5"/>
		<line id="Line_64" class="st6" x1="329.4" y1="496.8" x2="633.5" y2="496.8"/>
		<line id="Line_65" class="st6" x1="329.4" y1="537.2" x2="633.5" y2="537.2"/>
		<line id="Line_66" class="st6" x1="329.4" y1="577.6" x2="633.5" y2="577.6"/>
	</g>
	<g id="Group_19">
		<path id="Path_65" class="st2" d="M363.4,119.9L353.9,82c-1.5-6,2.1-12.1,8.2-13.6l0,0l0,0c6-1.5,12.1,2.2,13.6,8.2l4.2,16.7"/>
		<path id="Path_66" class="st2" d="M357.7,96.9l8.9,35.6c2.1,8.5,10.7,13.6,19.2,11.5l0,0c8.5-2.1,13.6-10.7,11.5-19.2l-5.4-21.4"
			/>
	</g>
</g>
<g id="Layer_4">
	<g>
		<defs>
			<circle id="SVGID_1_" cx="481.5" cy="365" r="112.9"/>
		</defs>
		<clipPath id="SVGID_2_">
			<use xlink:href="#SVGID_1_"  style="overflow:visible;"/>
		</clipPath>
		<g class="st10">
			<circle class="st11" cx="481.5" cy="365" r="112.9"/>
			
				<ellipse transform="matrix(8.248051e-02 -0.9966 0.9966 8.248051e-02 95.7393 855.9902)" class="st12" cx="512.8" cy="376" rx="35.7" ry="35.7"/>
			<line class="st13" x1="542.1" y1="403.2" x2="583.4" y2="440.9"/>
			<path class="st14" d="M437.5,321.2c3.4-3.3,7.4-6,11.7-7.8c4.4-1.9,9.1-2.9,13.9-2.9c3.7,0,7.4,0.6,10.9,1.8"/>
			<path class="st14" d="M424.5,341.2c2.2-3.5,4.9-6.8,7.9-9.6c4-3.9,8.6-7.1,13.8-9.3c3.1-1.3,6.3-2.2,9.6-2.7"/>
			<path class="st14" d="M474.8,319.9c6.7-0.3,13.2,1.8,18.4,6"/>
			<path class="st14" d="M441.7,332.9c4.7-3.5,10.1-6.1,15.9-7.4c6.4-1.4,13-1.3,19.4,0.2c6.6,1.2,12.9,3.8,18.4,7.8
				c1.9,1.4,3.6,2.9,5.3,4.5"/>
			<path class="st14" d="M417.7,367c2.6-4.7,5.6-9.1,9.1-13.2c4.8-6,10.6-11,17.2-14.9c5.9-3.4,13.2-7.5,22.8-7.2
				c12.7,0.5,21.5,8.4,25.8,12.2c4.2,3.8,7.8,8.3,10.6,13.3"/>
			<path class="st14" d="M460.2,342.8c-16.7,6.7-30.4,19.1-38.8,35"/>
			<path class="st14" d="M478.1,343.4c2.8,0.8,5.6,2,8.1,3.5c6.1,3.6,9.6,8.3,12.8,12.6c2.7,3.7,5,7.6,6.9,11.8"/>
			<path class="st14" d="M425.6,391.2c1.7-5.4,4.2-10.5,7.6-15c1.4-1.8,2.8-3.6,4.5-5.2"/>
			<path class="st14" d="M454.7,357.9c1.9-2,4-3.8,6.4-5.2c2.7-1.6,7-4.2,12.2-3.5c5.7,0.8,9.3,5.2,10.3,6.4
				c5.6,6.9,2.5,12.6,6.8,20.5c1.7,3.1,5,7.4,12.1,11.1"/>
			<path class="st14" d="M430.9,399.3c3.6-7,7.9-13.6,12.8-19.8c6.3-8,11.6-12.6,17.4-16.1c4.7-2.8,7.9-4.4,10.8-3.3
				c2.7,1,4.3,3.7,5.4,5.6c2,3.4,1.9,5.4,2.9,8.7c2.1,6.8,6.4,11.4,11,16.3c2.1,2.2,4.3,4.2,6.7,6.1"/>
			<path class="st14" d="M444.2,391.9c-1.2,1.6-2.3,3.3-3.3,5c-1.9,3.4-3.2,7.1-4,11"/>
			<path class="st14" d="M452.6,382.7c0.2-0.3,4.8-8.1,12.8-7.9c2.8,0,5.4,1,7.5,2.7c4.3,3.7,3,9,5,14.9c1.4,4.1,4.7,9.3,13,14.1"/>
			<path class="st14" d="M444.3,413.8l6.1-11.1c3.7-6.8,5.7-10.2,8.5-11.4c2.6-1.1,6.6-1.3,8.9,0.8c2.7,2.5,0.9,6.3,2.3,11.2
				c0.9,3.1,3.4,7.4,10.5,11.4"/>
			<path class="st14" d="M460.1,402.6c-0.8,2.6-1.2,5.4-1.2,8.1c0,2.9,0.5,5.7,1.5,8.4"/>
		</g>
	</g>
</g>
<g id="Layer_1_1_">
	<circle class="st15" cx="720.4" cy="253.5" r="54.7"/>
</g>
<g id="Layer_3">
	<path class="st3" d="M752.6,264.4c1.3-2.2,2.1-4.7,2.3-7.3c0.7-9.4-6.4-17.6-15.8-18.3c-5.8-0.4-11.5,2.1-15,6.8
		c-3.8,5.2-4.4,12.2-1.3,17.9c1.6,3,4,5.4,7,7c2.7,1.5,5.8,2.3,8.9,2.2c2.3-0.1,4.5-0.7,6.6-1.7c0.4-0.4,0.6-0.9,0.5-1.5
		c0-0.5-0.2-0.9-0.6-1.3c-0.3-0.3-0.8-0.5-1.3-0.5c-0.3,0-0.5,0.1-0.8,0.2c-1,0.4-2,0.8-3,0.9c-1.3,0.3-2.7,0.3-4,0.1
		c-1.8-0.2-3.5-0.8-5-1.7c-1.7-1-3.1-2.3-4.2-3.9c-1.7-2.4-2.5-5.3-2.4-8.3c0-0.9,0.2-1.9,0.4-2.8c0.2-0.6,0.4-1.3,0.6-1.9
		c2.9-6.8,10.7-10,17.5-7.1c5.3,2.2,8.5,7.5,8.1,13.2c-0.1,2.5-1,4.9-2.4,6.9c-1.1,1.3-2.3,2.6-3.7,3.7l0,0c0.4,0,0.7,0,1.1,0.2
		c0.7,0.4,1.1,1.2,1,2.1c-0.1,0.6-0.4,0.9-0.4,1c0.1,0.1,1.5-0.8,2.6-1.9C750.7,267.2,751.7,265.9,752.6,264.4z"/>
	<path class="st3" d="M730.3,236l4.8-1.5c0.3-0.1,0.6,0.1,0.6,0.3l1.3,4.3c0.1,0.3-0.1,0.6-0.3,0.6l-4.8,1.5
		c-0.3,0.1-0.6-0.1-0.6-0.3l-1.3-4.3C729.9,236.3,730,236.1,730.3,236z"/>
	<circle class="st16" cx="743.7" cy="269.8" r="1.1"/>
	<path class="st17" d="M733.4,237.7L733.4,237.7c0.5-0.2,1.1,0.1,1.2,0.7l0.5,1.5c0.2,0.5-0.1,1.1-0.7,1.2l0,0
		c-0.5,0.2-1.1-0.1-1.2-0.7l-0.5-1.5C732.6,238.4,732.9,237.9,733.4,237.7z"/>
	<path class="st18" d="M731.9,238l0-0.1c-0.1-0.5,0.1-1,0.6-1.1l1.2-0.4c0.5-0.1,1,0.1,1.1,0.6l0,0.1c0.1,0.5-0.1,1-0.6,1.1
		l-1.2,0.4C732.6,238.8,732.1,238.5,731.9,238z"/>
	<path class="st18" d="M737.1,239.4c0,0.5,0,1,0,1.6c0,0.7-0.1,1.4-0.2,2.1c1.5,1.1,3.4,1.1,4.5,0.2c0.8-0.7,1.2-1.8,1-2.9
		c-0.3-1.1-1.3-1.6-2.7-2.3c-0.5-0.3-2.2-1.1-2.7-0.6C736.8,237.7,737,238,737.1,239.4z"/>
	<path class="st19" d="M747,264.1c2.3,0.7,3.4,2.5,3.5,5.1l-4.3,2.5v-3.5c0,0-2.2-1.2-2.1-1.3c0.1-0.1,1.4-2.3,1.4-2.3L747,264.1z"
		/>
	<path class="st19" d="M720.2,270.3c0.5-0.6,5.6-7.4,3-15.2c-1-2.9-2.8-5.4-5.2-7.2L720.2,270.3z"/>
	<path class="st3" d="M715.4,273.4c1.9-1.8,3.4-3.9,4.4-6.3c3.4-8.8-0.9-18.7-9.7-22.1c-5.4-2.1-11.6-1.3-16.3,2.1
		c-5.2,3.9-7.7,10.4-6.5,16.8c0.7,3.3,2.3,6.3,4.6,8.7c2.2,2.2,4.9,3.8,7.8,4.7c2.2,0.6,4.5,0.7,6.8,0.3c0.5-0.3,0.8-0.7,1-1.3
		c0.1-0.5,0-1-0.2-1.4c-0.2-0.4-0.6-0.7-1.1-0.9c-0.3-0.1-0.5-0.1-0.8,0c-1,0.1-2.1,0.1-3.2,0c-1.3-0.1-2.6-0.5-3.8-1.1
		c-1.6-0.7-3.1-1.8-4.3-3.1c-1.3-1.4-2.3-3.1-2.9-5c-0.9-2.8-0.8-5.8,0.1-8.6c0.5-1.5,1.3-2.9,2.3-4.1c3.5-4.1,9.2-5.7,14.3-4.1
		c2.4,0.8,4.5,2.2,6.2,4.1c1.8,2.2,2.9,4.9,3.1,7.8c0.1,1.9-0.2,3.8-0.8,5.6c-0.8,2.3-2.3,4.4-4.3,5.9c-1.4,1-3,1.8-4.6,2.4l0,0
		c0.4,0.1,0.7,0.3,1,0.5c0.6,0.6,0.7,1.5,0.3,2.3c-0.3,0.5-0.7,0.7-0.6,0.8c0.1,0.2,1.6-0.3,3-1
		C712.7,275.5,714.1,274.5,715.4,273.4z"/>
	<path class="st3" d="M702.4,239.6h5c0.3,0,0.5,0.2,0.5,0.5v4.5c0,0.3-0.2,0.5-0.5,0.5h-5c-0.3,0-0.5-0.2-0.5-0.5v-4.5
		C701.9,239.9,702.1,239.6,702.4,239.6z"/>
	<circle class="st16" cx="705.3" cy="275.9" r="1.1"/>
	<path class="st17" d="M704.9,242.2L704.9,242.2c0.5,0,1,0.4,1,1v1.6c0,0.5-0.4,1-1,1h0c-0.5,0-1-0.4-1-1v-1.6
		C703.9,242.6,704.3,242.2,704.9,242.2z"/>
	<path class="st18" d="M703.4,242.1v-0.1c0-0.5,0.4-0.9,0.9-0.9h1.2c0.5,0,0.9,0.4,0.9,0.9v0.1c0,0.5-0.4,0.9-0.9,0.9h-1.2
		C703.8,243,703.4,242.6,703.4,242.1z"/>
	<path class="st18" d="M707.9,244.8c-0.1,0.5-0.3,1-0.5,1.5c-0.2,0.7-0.5,1.3-0.8,1.9c1.1,1.5,2.9,2.1,4.3,1.5
		c1-0.4,1.7-1.4,1.8-2.5c0.1-1.1-0.8-1.9-1.9-3c-0.4-0.4-1.8-1.7-2.4-1.3C708.1,243.1,708.2,243.5,707.9,244.8z"/>
	<path class="st19" d="M710.1,271.4c2,1.3,2.5,3.3,1.9,5.9l-4.8,1.2l1-3.3c0,0-1.7-1.8-1.7-1.9c0.1-0.1,2-1.8,2-1.8H710.1z"/>
	<path class="st20" d="M707.8,229.9l5.4-2.2c0.3-0.1,0.5,0,0.6,0.3l1,2.5c0.1,0.3,0,0.5-0.3,0.6l-5.4,2.2c-0.3,0.1-0.5,0-0.6-0.3
		l-1-2.5C707.4,230.3,707.5,230,707.8,229.9z"/>
	<path class="st20" d="M720.4,227.1l5.6,1.6c0.3,0.1,0.4,0.4,0.3,0.6l-0.8,2.6c-0.1,0.3-0.4,0.4-0.6,0.3l-5.6-1.6
		c-0.3-0.1-0.4-0.4-0.3-0.6l0.8-2.6C719.8,227.2,720.1,227.1,720.4,227.1z"/>
	<line class="st20" x1="705.3" y1="237.5" x2="708.6" y2="231.5"/>
	<line class="st20" x1="724.9" y1="230.2" x2="730.7" y2="233.8"/>
	<line class="st20" x1="713.5" y1="229.4" x2="720.3" y2="229.3"/>
</g>
<g id="Layer_3_1_">
	<g>
		<defs>
			<circle id="SVGID_3_" cx="222.8" cy="642.1" r="68.6"/>
		</defs>
		<clipPath id="SVGID_4_">
			<use xlink:href="#SVGID_3_"  style="overflow:visible;"/>
		</clipPath>
		<g class="st21">
			<g>
				<defs>
					<circle id="SVGID_5_" cx="222.6" cy="642.1" r="68.6"/>
				</defs>
				<clipPath id="SVGID_6_">
					<use xlink:href="#SVGID_5_"  style="overflow:visible;"/>
				</clipPath>
				<g class="st22">
					<circle class="st23" cx="222.6" cy="642.1" r="68.6"/>
					<line class="st24" x1="210" y1="570.6" x2="210" y2="712.9"/>
					<line class="st24" x1="239.1" y1="571" x2="239.1" y2="713.3"/>
					<line class="st25" x1="268.1" y1="570.6" x2="268.1" y2="610.9"/>
					<line class="st25" x1="268.1" y1="668" x2="268.1" y2="708.3"/>
					<line class="st25" x1="179.9" y1="573.3" x2="179.9" y2="613.6"/>
					<line class="st25" x1="179.9" y1="670.7" x2="179.9" y2="711"/>
					<path class="st3" d="M273.1,619.7c1.9,0.5,4.4,2.7,9.1,7.1c4.5,4.2,5.7,5.7,5.3,7.1c-0.4,1.4-2.1,1.8-2.3,3.7
						c-0.1,1,0.2,1.8,0.6,3.1c0.7,2.1,1.2,2.2,1.2,3.1c-0.1,1.6-1.8,1.8-1.9,3.3c0,1.2,1.1,1.3,1.3,2.8c0.2,1.3-0.6,1.5-1,4.2
						c-0.3,1.8,0.1,2.1-0.3,2.9s-1.2,1.7-4.1,2.3c-0.8,0.2-1.5,0.3-2.3,0.3c-2.6,0.1-5.1-0.1-7.7-0.6c-4.5-0.7-5.5-1.2-6.4-2
						c-0.4-0.4-1.4-1.4-1.2-2.2c0.5-1.6,5.2-1.7,7.8-1.6c2.4,0.1,3.8,0.5,6.9,0.3c0.9,0,1.8-0.1,2.8-0.3c0-0.2-11.3-1.5-18.2-1.5
						c-1.1,0.1-2.2-0.3-3-1.1c-1-1.1-1.5-3.3-0.7-4.7c0.9-1.5,4.3-1.4,11-0.9c2,0.2,4,0.2,5.9,0.2c0.6,0,4.7-0.2,4.7-0.6
						c0-0.4-4.6-1.2-9.1-1.4c-8.2-0.5-11.8,0.8-13.3-1.6c-0.8-1.2-0.8-2.8-0.1-4c1.4-2.2,5.3-0.7,14.5-0.6c3,0,7.2-0.1,7.2-0.5
						c0-0.4-4.4-1.2-9-1.5c-7-0.5-10.1,0.4-11.6-1.9c-0.7-1.1-0.9-2.5-0.3-3.7c2.2-4.1,14.7,0,15-1.2c0.1-0.5-2.4-1.6-3.5-2
						c-1.7-0.6-3.4-0.8-5.2-0.8c-2.9,0.1-6.5,0.2-8.1,2.8c-0.7,1.2-1.1,2.6-1,4c0,1.3,0.4,1.6,0.4,3.3c0,1.4,0,2.6-0.7,3.4
						c-0.7,0.8-1.9,1-2.9,0.6c-0.2-0.1-1.1-0.6-1.5-2.9c-0.4-2-0.1-3.5,0.5-6.5c1.1-5.7,1.2-5.9,1.6-6.4c0.7-0.8,1.3-0.8,6.3-2.3
						c3.9-1.2,3.5-1.2,4.4-1.4C266,619.6,269.6,618.7,273.1,619.7z"/>
					<path class="st3" d="M172.9,622.3c-1.9,0.5-4.4,2.7-9.1,7.1c-4.5,4.2-5.7,5.7-5.3,7.1c0.4,1.4,2.1,1.8,2.3,3.7
						c0.1,1-0.2,1.8-0.6,3.1c-0.7,2.1-1.2,2.2-1.2,3.1c0.1,1.6,1.8,1.8,1.9,3.3c0,1.2-1.1,1.3-1.3,2.8c-0.2,1.3,0.6,1.5,1,4.2
						c0.3,1.8-0.1,2.1,0.3,3c0.4,0.8,1.2,1.7,4.1,2.3c0.8,0.2,1.5,0.3,2.3,0.3c2.6,0,5.1-0.2,7.7-0.6c4.5-0.7,5.5-1.2,6.4-2
						c0.4-0.4,1.4-1.4,1.2-2.2c-0.5-1.6-5.2-1.7-7.8-1.5c-2.4,0.1-3.8,0.4-6.9,0.3c-0.9,0-1.8-0.1-2.8-0.3c0-0.2,11.3-1.5,18.2-1.5
						c1.1,0.1,2.2-0.3,3-1.1c1-1.1,1.5-3.3,0.7-4.7c-0.9-1.5-4.3-1.4-11-0.9c-2,0.2-4,0.2-5.9,0.2c-0.6,0-4.7-0.2-4.7-0.6
						c0-0.4,4.6-1.2,9.1-1.4c8.2-0.5,11.8,0.8,13.3-1.5c0.8-1.2,0.8-2.8,0.1-4c-1.4-2.2-5.3-0.7-14.5-0.6c-3,0-7.2-0.1-7.2-0.5
						s4.4-1.2,9-1.5c7-0.5,10.1,0.4,11.6-1.9c0.7-1.1,0.9-2.5,0.3-3.7c-2.2-4.1-14.7,0-15-1.2c-0.1-0.5,2.4-1.6,3.5-2
						c1.7-0.6,3.4-0.9,5.2-0.8c2.9,0.1,6.5,0.2,8.1,2.8c0.7,1.2,1.1,2.6,1,4c0,1.3-0.4,1.6-0.4,3.3c0,1.4,0,2.6,0.7,3.4
						c0.7,0.8,1.9,1,2.9,0.6c0.2-0.1,1.1-0.6,1.5-2.9c0.4-2,0.1-3.5-0.5-6.5c-1.1-5.7-1.2-5.9-1.6-6.4c-0.7-0.8-1.3-0.8-6.3-2.3
						c-3.9-1.2-3.5-1.2-4.4-1.4C180,622.3,176.4,621.4,172.9,622.3z"/>
				</g>
			</g>
		</g>
	</g>
</g>
<g id="Layer_3_2_">
	<g>
		<defs>
			<circle id="SVGID_7_" cx="111.2" cy="344.7" r="49.1"/>
		</defs>
		<clipPath id="SVGID_8_">
			<use xlink:href="#SVGID_7_"  style="overflow:visible;"/>
		</clipPath>
		<g class="st26">
			<circle class="st27" cx="111.2" cy="344.7" r="49.1"/>
			<circle class="st3" cx="107.5" cy="333.2" r="9.9"/>
			<path class="st3" d="M101,376.5c-0.1-1.8-0.6-9.9,0.9-16.4c0.4-2,1.1-4,2.1-5.9c0.7-1.4,1.5-2.6,2.5-3.7c1-1,2.4-2.6,4.6-3
				c3.6-0.7,6.4,2.2,6.7,2.5c1,1,1.9,2,2.6,3.2c0.6,0.9,1.9,3.1,2.9,7.3c1.5,6.5,1.2,13.3,1,16.3"/>
			<path class="st3" d="M91.8,367.6c0.7-4.6,5.2-14.9,13-19.1c2.6-1.4,5.6-2.2,8.6-2.2h0.1c1.8,0.1,6.8,0.4,12.1-1.4
				c2.5-0.8,4.8-2,6.8-3.6c4.4-3.8,7.4-6.5,7.4-6.5c0.4-0.4,1.4-1.3,2.4-1.1c0.7,0.1,1.3,0.6,1.6,1.3c0.4,1.2-0.8,2.6-1.9,3.7
				c-9.4,9.4-17.6,11.1-17.6,11.1c-5.5,1.2-6-0.3-10.9,1.3c-3,1-6.5,3-10.6,5.6c-2.9,1.9-6.3,5.2-6.6,10.2c-0.1,1.6-0.5,4.8-2.2,5.6
				c-0.5,0.3-1.1,0.3-1.7,0C91.1,371.9,91.5,369.6,91.8,367.6z"/>
			<line class="st28" x1="93.7" y1="317.5" x2="98.6" y2="321.4"/>
			<line class="st28" x1="116.5" y1="314.8" x2="112.7" y2="319.7"/>
			<line class="st28" x1="104.6" y1="312.1" x2="105.4" y2="318.4"/>
			<path class="st3" d="M123.3,400.9H117l-1.3-16.3l-5.5,0.1l-1.2,16.2c0,0-2.8,0-6.8,0c-0.3,0-0.7-0.2-0.9-0.4
				c-0.2-0.3-0.4-0.6-0.4-1v-23.7c0-0.7,0.5-1.4,1.3-1.4h21.1c0.7,0,1.3,0.7,1.3,1.4v23.7C124.6,400.2,124,400.9,123.3,400.9z"/>
		</g>
	</g>
</g>
<g id="Layer_4_1_">
	<circle class="st29" cx="845.6" cy="521.6" r="55.3"/>
	<path class="st30" d="M860.1,550.6c-2.4,1.2-4.9,2-7.5,2.6c-14.3,3.1-29-3.6-36-16.5c-6-11-5.3-24.4,1.9-34.7
		c4.2-6,10.2-10.4,17.2-12.7c16-5,33.2,2.7,40.1,18c2.6,5.9,3.5,12.5,2.5,18.9"/>
	<polygon class="st31" points="866.7,546.1 856.4,546.7 862.1,555.3 	"/>
	<path class="st32" d="M867.3,538l5.8,6.7l0,0c3.5-5.8,8-10.9,13.3-15"/>
</g>
</svg>
